{
    "patcher": {
        "fileversion": 1,
        "appversion": {
            "major": 9,
            "minor": 1,
            "revision": 2,
            "architecture": "x64",
            "modernui": 1
        },
        "classnamespace": "box",
        "rect": [ 256.0, 166.0, 705.0, 551.0 ],
        "default_fontsize": 10.0,
        "default_fontname": "Verdana",
        "gridsize": [ 5.0, 5.0 ],
        "boxes": [
            {
                "box": {
                    "id": "obj-17",
                    "maxclass": "comment",
                    "numinlets": 1,
                    "numoutlets": 0,
                    "patching_rect": [ 241.5, 292.0, 43.0, 19.0 ],
                    "text": "param"
                }
            },
            {
                "box": {
                    "id": "obj-15",
                    "maxclass": "message",
                    "numinlets": 2,
                    "numoutlets": 1,
                    "outlettype": [ "" ],
                    "patching_rect": [ 376.0, 460.0, 293.0, 21.0 ],
                    "text": "ffi_osc_fm carrier 220. modulator 220. index 2. gain 0.5"
                }
            },
            {
                "box": {
                    "id": "obj-14",
                    "maxclass": "message",
                    "numinlets": 2,
                    "numoutlets": 1,
                    "outlettype": [ "" ],
                    "patching_rect": [ 376.0, 424.0, 296.0, 21.0 ],
                    "text": "ffi_osc_fm carrier 440. modulator 220. index 2. gain 0.5"
                }
            },
            {
                "box": {
                    "id": "obj-6",
                    "maxclass": "message",
                    "numinlets": 2,
                    "numoutlets": 1,
                    "outlettype": [ "" ],
                    "patching_rect": [ 376.0, 397.0, 150.0, 21.0 ],
                    "text": "ffi_softclip drive 3. mix 0.7"
                }
            },
            {
                "box": {
                    "id": "obj-12",
                    "linecount": 2,
                    "maxclass": "comment",
                    "numinlets": 1,
                    "numoutlets": 0,
                    "patching_rect": [ 396.5, 346.0, 150.0, 31.0 ],
                    "text": "another way to set a dsp func with params"
                }
            },
            {
                "box": {
                    "id": "obj-5",
                    "maxclass": "message",
                    "numinlets": 2,
                    "numoutlets": 1,
                    "outlettype": [ "" ],
                    "patching_rect": [ 376.0, 321.0, 191.0, 21.0 ],
                    "text": "delay time 0.5 feedback 0.6 mix 0.5"
                }
            },
            {
                "box": {
                    "id": "obj-13",
                    "items": [ "base", ",", "osc", ",", "saw", ",", "square", ",", "filter", ",", "pitchshift", ",", "reverb", ",", "lpf1", ",", "lpf2", ",", "lpf3", ",", "saturate" ],
                    "maxclass": "umenu",
                    "numinlets": 1,
                    "numoutlets": 3,
                    "outlettype": [ "int", "", "" ],
                    "parameter_enable": 0,
                    "patching_rect": [ 152.0, 356.0, 67.0, 21.0 ]
                }
            },
            {
                "box": {
                    "format": 6,
                    "id": "obj-10",
                    "maxclass": "flonum",
                    "numinlets": 1,
                    "numoutlets": 2,
                    "outlettype": [ "", "bang" ],
                    "parameter_enable": 0,
                    "patching_rect": [ 238.0, 321.0, 50.0, 21.0 ]
                }
            },
            {
                "box": {
                    "disabled": [ 0, 0, 0 ],
                    "id": "obj-41",
                    "itemtype": 0,
                    "maxclass": "radiogroup",
                    "numinlets": 1,
                    "numoutlets": 1,
                    "outlettype": [ "" ],
                    "parameter_enable": 0,
                    "patching_rect": [ 312.0, 257.0, 18.0, 50.0 ],
                    "size": 3,
                    "value": 1
                }
            },
            {
                "box": {
                    "id": "obj-36",
                    "maxclass": "newobj",
                    "numinlets": 2,
                    "numoutlets": 2,
                    "outlettype": [ "signal", "signal" ],
                    "patching_rect": [ 312.0, 321.0, 49.0, 21.0 ],
                    "text": "gate~ 2"
                }
            },
            {
                "box": {
                    "args": [ "@module", 3, "@vol", -99 ],
                    "bgmode": 0,
                    "border": 0,
                    "clickthrough": 0,
                    "enablehscroll": 0,
                    "enablevscroll": 0,
                    "id": "obj-26",
                    "lockeddragscroll": 0,
                    "lockedsize": 0,
                    "maxclass": "bpatcher",
                    "name": "demosound.maxpat",
                    "numinlets": 0,
                    "numoutlets": 1,
                    "offset": [ 0.0, 0.0 ],
                    "outlettype": [ "signal" ],
                    "patching_rect": [ 342.0, 185.0, 225.0, 95.0 ],
                    "viewvisibility": 1
                }
            },
            {
                "box": {
                    "id": "obj-11",
                    "linecount": 8,
                    "maxclass": "comment",
                    "numinlets": 1,
                    "numoutlets": 0,
                    "patching_rect": [ 16.0, 49.0, 656.0, 104.0 ],
                    "text": "This external is intended to demonstrate the performance of luajit running pure lua dsp algorithms in Max's audio thread.\n\nOn opening the patch, it loads the dsp.lua script  from the package's examples folder. This file contains lua dsp functions which can be selected via the drop-down menu. Note that the `base` function does nothing except attenuate the signal.\n\nThe sound source is provided to test effect algorithms, its routing can be switched via the gate radio buttons.\n\nYou can also update the dsp.lua script  and then bang the button to reload the file."
                }
            },
            {
                "box": {
                    "fontface": 1,
                    "fontsize": 12.0,
                    "id": "obj-8",
                    "maxclass": "comment",
                    "numinlets": 1,
                    "numoutlets": 0,
                    "patching_rect": [ 16.0, 16.0, 359.0, 21.0 ],
                    "text": "luajit~ : embedding luajit in a max/msp external"
                }
            },
            {
                "box": {
                    "id": "obj-7",
                    "maxclass": "comment",
                    "numinlets": 1,
                    "numoutlets": 0,
                    "patching_rect": [ 142.0, 287.0, 42.0, 19.0 ],
                    "text": "reload"
                }
            },
            {
                "box": {
                    "id": "obj-9",
                    "maxclass": "button",
                    "numinlets": 1,
                    "numoutlets": 1,
                    "outlettype": [ "bang" ],
                    "parameter_enable": 0,
                    "patching_rect": [ 190.0, 287.0, 24.0, 24.0 ]
                }
            },
            {
                "box": {
                    "id": "obj-4",
                    "maxclass": "ezdac~",
                    "numinlets": 2,
                    "numoutlets": 0,
                    "patching_rect": [ 315.0, 473.0, 45.0, 45.0 ]
                }
            },
            {
                "box": {
                    "fontname": "Verdana",
                    "fontsize": 10.0,
                    "id": "obj-1",
                    "maxclass": "newobj",
                    "numinlets": 1,
                    "numoutlets": 1,
                    "outlettype": [ "signal" ],
                    "patching_rect": [ 238.0, 397.0, 82.0, 21.0 ],
                    "text": "luajit~ dsp.lua"
                }
            }
        ],
        "lines": [
            {
                "patchline": {
                    "destination": [ "obj-4", 1 ],
                    "order": 0,
                    "source": [ "obj-1", 0 ]
                }
            },
            {
                "patchline": {
                    "destination": [ "obj-4", 0 ],
                    "order": 1,
                    "source": [ "obj-1", 0 ]
                }
            },
            {
                "patchline": {
                    "destination": [ "obj-1", 0 ],
                    "source": [ "obj-10", 0 ]
                }
            },
            {
                "patchline": {
                    "destination": [ "obj-1", 0 ],
                    "source": [ "obj-13", 1 ]
                }
            },
            {
                "patchline": {
                    "destination": [ "obj-1", 0 ],
                    "source": [ "obj-14", 0 ]
                }
            },
            {
                "patchline": {
                    "destination": [ "obj-1", 0 ],
                    "source": [ "obj-15", 0 ]
                }
            },
            {
                "patchline": {
                    "destination": [ "obj-36", 1 ],
                    "source": [ "obj-26", 0 ]
                }
            },
            {
                "patchline": {
                    "destination": [ "obj-1", 0 ],
                    "source": [ "obj-36", 0 ]
                }
            },
            {
                "patchline": {
                    "destination": [ "obj-4", 1 ],
                    "order": 0,
                    "source": [ "obj-36", 1 ]
                }
            },
            {
                "patchline": {
                    "destination": [ "obj-4", 0 ],
                    "order": 1,
                    "source": [ "obj-36", 1 ]
                }
            },
            {
                "patchline": {
                    "destination": [ "obj-36", 0 ],
                    "source": [ "obj-41", 0 ]
                }
            },
            {
                "patchline": {
                    "destination": [ "obj-1", 0 ],
                    "source": [ "obj-5", 0 ]
                }
            },
            {
                "patchline": {
                    "destination": [ "obj-1", 0 ],
                    "source": [ "obj-6", 0 ]
                }
            },
            {
                "patchline": {
                    "destination": [ "obj-1", 0 ],
                    "source": [ "obj-9", 0 ]
                }
            }
        ],
        "parameters": {
            "obj-26::obj-21::obj-6": [ "live.tab[3]", "live.tab[1]", 0 ],
            "obj-26::obj-35": [ "[5]", "Level", 0 ],
            "parameterbanks": {
                "0": {
                    "index": 0,
                    "name": "",
                    "parameters": [ "-", "-", "-", "-", "-", "-", "-", "-" ],
                    "buttons": [ "-", "-", "-", "-", "-", "-", "-", "-" ]
                }
            },
            "inherited_shortname": 1
        },
        "autosave": 0
    }
}