{
    "patcher": {
        "fileversion": 1,
        "appversion": {
            "major": 9,
            "minor": 1,
            "revision": 0,
            "architecture": "x64",
            "modernui": 1
        },
        "classnamespace": "box",
        "rect": [ 251.0, 169.0, 705.0, 551.0 ],
        "default_fontsize": 10.0,
        "default_fontname": "Verdana",
        "gridsize": [ 5.0, 5.0 ],
        "boxes": [
            {
                "box": {
                    "format": 6,
                    "id": "obj-10",
                    "maxclass": "flonum",
                    "numinlets": 1,
                    "numoutlets": 2,
                    "outlettype": [ "", "bang" ],
                    "parameter_enable": 0,
                    "patching_rect": [ 369.0, 124.0, 50.0, 21.0 ]
                }
            },
            {
                "box": {
                    "id": "obj-7",
                    "maxclass": "number",
                    "numinlets": 1,
                    "numoutlets": 2,
                    "outlettype": [ "", "bang" ],
                    "parameter_enable": 0,
                    "patching_rect": [ 278.0, 124.0, 50.0, 21.0 ]
                }
            },
            {
                "box": {
                    "id": "obj-4",
                    "maxclass": "button",
                    "numinlets": 1,
                    "numoutlets": 1,
                    "outlettype": [ "bang" ],
                    "parameter_enable": 0,
                    "patching_rect": [ 235.0, 124.0, 24.0, 24.0 ]
                }
            },
            {
                "box": {
                    "id": "obj-2",
                    "maxclass": "newobj",
                    "numinlets": 1,
                    "numoutlets": 0,
                    "patching_rect": [ 278.0, 251.0, 86.0, 21.0 ],
                    "text": "print @popup 1"
                }
            },
            {
                "box": {
                    "id": "obj-1",
                    "maxclass": "newobj",
                    "numinlets": 1,
                    "numoutlets": 1,
                    "outlettype": [ "" ],
                    "patching_rect": [ 278.0, 193.0, 120.0, 21.0 ],
                    "saved_object_attributes": {
                        "run_on_close": 1,
                        "run_on_save": 0
                    },
                    "text": "luajit simple_luajit.lua"
                }
            },
            {
                "box": {
                    "fontface": 1,
                    "fontsize": 12.0,
                    "id": "obj-8",
                    "maxclass": "comment",
                    "numinlets": 1,
                    "numoutlets": 0,
                    "patching_rect": [ 16.0, 16.0, 359.0, 21.0 ],
                    "text": "luajit : embedding luajit in a max/msp external"
                }
            }
        ],
        "lines": [
            {
                "patchline": {
                    "destination": [ "obj-2", 0 ],
                    "source": [ "obj-1", 0 ]
                }
            },
            {
                "patchline": {
                    "destination": [ "obj-1", 0 ],
                    "source": [ "obj-10", 0 ]
                }
            },
            {
                "patchline": {
                    "destination": [ "obj-1", 0 ],
                    "source": [ "obj-4", 0 ]
                }
            },
            {
                "patchline": {
                    "destination": [ "obj-1", 0 ],
                    "source": [ "obj-7", 0 ]
                }
            }
        ],
        "autosave": 0
    }
}